<?xml version="1.0" encoding="UTF-8"?>
<svg xmlns="http://www.w3.org/2000/svg" xmlns:xlink="http://www.w3.org/1999/xlink" width="562.648375pt" height="289.137729pt" viewBox="0 0 562.648375 289.137729" version="1.2">
<defs>
<g>
<symbol overflow="visible" id="glyph0-0">
<path style="stroke:none;" d="M -0.734375 -9.515625 C -1.304688 -9.183594 -1.570312 -8.65625 -1.539062 -7.925781 C -1.507812 -7.199219 -1.15625 -6.277344 -0.507812 -5.15625 C 0.140625 -4.03125 0.761719 -3.269531 1.378906 -2.875 C 1.992188 -2.484375 2.582031 -2.449219 3.15625 -2.777344 C 3.726562 -3.109375 3.992188 -3.636719 3.960938 -4.367188 C 3.917969 -5.089844 3.574219 -6.015625 2.929688 -7.136719 C 2.28125 -8.261719 1.648438 -9.019531 1.042969 -9.417969 C 0.425781 -9.808594 -0.160156 -9.84375 -0.734375 -9.515625 Z M -1.238281 -10.390625 C -0.328125 -10.914062 0.578125 -10.945312 1.488281 -10.511719 C 2.390625 -10.0625 3.25 -9.148438 4.039062 -7.78125 C 4.835938 -6.398438 5.199219 -5.203125 5.128906 -4.203125 C 5.050781 -3.199219 4.5625 -2.441406 3.640625 -1.910156 C 2.722656 -1.378906 1.820312 -1.335938 0.921875 -1.773438 C 0.0234375 -2.214844 -0.820312 -3.132812 -1.617188 -4.511719 C -2.410156 -5.882812 -2.78125 -7.074219 -2.722656 -8.082031 C -2.652344 -9.078125 -2.160156 -9.859375 -1.238281 -10.390625 Z M -1.238281 -10.390625 "/>
</symbol>
<symbol overflow="visible" id="glyph0-1">
<path style="stroke:none;" d="M 1.53125 -8.832031 L 2.082031 -7.878906 C 1.710938 -7.84375 1.355469 -7.789062 1.007812 -7.691406 C 0.65625 -7.578125 0.3125 -7.441406 -0.0117188 -7.253906 C -0.515625 -6.960938 -0.851562 -6.660156 -1.007812 -6.363281 C -1.164062 -6.0625 -1.160156 -5.765625 -0.984375 -5.464844 C -0.847656 -5.226562 -0.65625 -5.101562 -0.398438 -5.070312 C -0.140625 -5.039062 0.296875 -5.109375 0.902344 -5.308594 L 1.292969 -5.433594 C 2.101562 -5.6875 2.738281 -5.757812 3.195312 -5.660156 C 3.652344 -5.550781 4.035156 -5.246094 4.320312 -4.753906 C 4.648438 -4.179688 4.683594 -3.601562 4.421875 -3.019531 C 4.167969 -2.421875 3.632812 -1.902344 2.84375 -1.449219 C 2.507812 -1.253906 2.152344 -1.09375 1.761719 -0.941406 C 1.371094 -0.789062 0.945312 -0.667969 0.476562 -0.574219 L -0.125 -1.617188 C 0.359375 -1.628906 0.816406 -1.699219 1.226562 -1.816406 C 1.644531 -1.921875 2.027344 -2.085938 2.386719 -2.292969 C 2.859375 -2.5625 3.183594 -2.855469 3.351562 -3.164062 C 3.507812 -3.460938 3.507812 -3.777344 3.332031 -4.078125 C 3.175781 -4.347656 2.953125 -4.503906 2.6875 -4.546875 C 2.425781 -4.585938 1.9375 -4.5 1.230469 -4.273438 L 0.835938 -4.148438 C 0.128906 -3.921875 -0.445312 -3.859375 -0.871094 -3.972656 C -1.308594 -4.078125 -1.65625 -4.371094 -1.933594 -4.855469 C -2.265625 -5.425781 -2.324219 -5.992188 -2.101562 -6.539062 C -1.878906 -7.089844 -1.382812 -7.582031 -0.621094 -8.023438 C -0.25 -8.238281 0.117188 -8.402344 0.484375 -8.542969 C 0.84375 -8.675781 1.191406 -8.769531 1.53125 -8.832031 Z M 1.53125 -8.832031 "/>
</symbol>
<symbol overflow="visible" id="glyph0-2">
<path style="stroke:none;" d="M 2.011719 -7.042969 C 2.601562 -7.234375 3.152344 -7.238281 3.652344 -7.046875 C 4.152344 -6.859375 4.570312 -6.5 4.867188 -5.984375 C 5.332031 -5.175781 5.417969 -4.382812 5.117188 -3.628906 C 4.808594 -2.867188 4.148438 -2.199219 3.125 -1.609375 C 2.777344 -1.410156 2.398438 -1.234375 2 -1.09375 C 1.609375 -0.945312 1.171875 -0.824219 0.710938 -0.738281 L 0.09375 -1.804688 C 0.5 -1.800781 0.917969 -1.859375 1.339844 -1.984375 C 1.75 -2.101562 2.15625 -2.277344 2.5625 -2.511719 C 3.257812 -2.914062 3.707031 -3.351562 3.910156 -3.828125 C 4.113281 -4.304688 4.070312 -4.820312 3.765625 -5.347656 C 3.496094 -5.820312 3.105469 -6.105469 2.613281 -6.179688 C 2.121094 -6.253906 1.566406 -6.128906 0.960938 -5.777344 L 0.00390625 -5.226562 L -0.519531 -6.136719 L 0.480469 -6.710938 C 1.019531 -7.023438 1.375 -7.363281 1.539062 -7.757812 C 1.707031 -8.140625 1.671875 -8.539062 1.429688 -8.953125 C 1.191406 -9.367188 0.847656 -9.601562 0.425781 -9.660156 C -0.0078125 -9.707031 -0.5 -9.574219 -1.050781 -9.257812 C -1.351562 -9.082031 -1.660156 -8.859375 -1.96875 -8.59375 C -2.277344 -8.324219 -2.601562 -8.003906 -2.9375 -7.628906 L -3.507812 -8.617188 C -3.15625 -8.96875 -2.816406 -9.285156 -2.476562 -9.554688 C -2.152344 -9.816406 -1.824219 -10.050781 -1.484375 -10.246094 C -0.65625 -10.726562 0.117188 -10.917969 0.832031 -10.820312 C 1.546875 -10.726562 2.089844 -10.351562 2.464844 -9.699219 C 2.726562 -9.25 2.8125 -8.792969 2.734375 -8.328125 C 2.65625 -7.867188 2.417969 -7.425781 2.011719 -7.042969 Z M 2.011719 -7.042969 "/>
</symbol>
<symbol overflow="visible" id="glyph0-3">
<path style="stroke:none;" d="M 0.855469 -1.734375 L 2.660156 -2.777344 L -0.941406 -9.019531 L -2.679688 -7.492188 L -3.261719 -8.503906 L -1.535156 -10.023438 L -0.425781 -10.664062 L 3.761719 -3.414062 L 5.570312 -4.457031 L 6.105469 -3.527344 L 1.390625 -0.804688 Z M 0.855469 -1.734375 "/>
</symbol>
<symbol overflow="visible" id="glyph0-4">
<path style="stroke:none;" d="M 0.507812 -2.148438 L 1.664062 -2.816406 L 2.46875 -1.425781 L 1.3125 -0.757812 Z M -2.039062 -6.5625 L -0.882812 -7.230469 L -0.078125 -5.835938 L -1.234375 -5.167969 Z M -2.039062 -6.5625 "/>
</symbol>
<symbol overflow="visible" id="glyph0-5">
<path style="stroke:none;" d="M 1.617188 -2.175781 L 5.480469 -4.40625 L 6.015625 -3.472656 L 0.820312 -0.472656 L 0.28125 -1.40625 C 0.449219 -2.070312 0.6875 -2.984375 0.988281 -4.148438 C 1.285156 -5.292969 1.472656 -6.027344 1.539062 -6.351562 C 1.671875 -6.953125 1.726562 -7.433594 1.699219 -7.789062 C 1.675781 -8.136719 1.59375 -8.464844 1.4375 -8.734375 C 1.191406 -9.160156 0.828125 -9.429688 0.371094 -9.523438 C -0.0898438 -9.617188 -0.566406 -9.535156 -1.058594 -9.25 C -1.410156 -9.050781 -1.738281 -8.769531 -2.058594 -8.4375 C -2.367188 -8.09375 -2.679688 -7.671875 -2.972656 -7.171875 L -3.621094 -8.296875 C -3.277344 -8.734375 -2.9375 -9.109375 -2.609375 -9.417969 C -2.28125 -9.730469 -1.945312 -9.980469 -1.621094 -10.167969 C -0.777344 -10.65625 0.0195312 -10.832031 0.769531 -10.695312 C 1.519531 -10.5625 2.101562 -10.148438 2.511719 -9.441406 C 2.707031 -9.105469 2.824219 -8.742188 2.871094 -8.378906 C 2.921875 -8.003906 2.90625 -7.515625 2.800781 -6.914062 C 2.777344 -6.75 2.660156 -6.28125 2.457031 -5.488281 C 2.253906 -4.699219 1.980469 -3.597656 1.617188 -2.175781 Z M 1.617188 -2.175781 "/>
</symbol>
<symbol overflow="visible" id="glyph1-0">
<path style="stroke:none;" d="M 2.75 -9.046875 L 2.75 -1.128906 L 4.410156 -1.128906 C 5.808594 -1.128906 6.839844 -1.4375 7.496094 -2.078125 C 8.136719 -2.722656 8.472656 -3.726562 8.472656 -5.09375 C 8.472656 -6.460938 8.136719 -7.453125 7.496094 -8.097656 C 6.839844 -8.722656 5.808594 -9.046875 4.410156 -9.046875 Z M 1.367188 -10.175781 L 4.203125 -10.175781 C 6.167969 -10.175781 7.621094 -9.757812 8.542969 -8.949219 C 9.464844 -8.125 9.925781 -6.839844 9.925781 -5.09375 C 9.925781 -3.335938 9.449219 -2.050781 8.527344 -1.226562 C 7.605469 -0.40625 6.15625 0 4.203125 0 L 1.367188 0 Z M 1.367188 -10.175781 "/>
</symbol>
<symbol overflow="visible" id="glyph1-1">
<path style="stroke:none;" d="M 1.1875 -3.015625 L 1.1875 -7.636719 L 2.441406 -7.636719 L 2.441406 -3.058594 C 2.441406 -2.332031 2.582031 -1.800781 2.863281 -1.4375 C 3.140625 -1.074219 3.558594 -0.894531 4.132812 -0.894531 C 4.800781 -0.894531 5.347656 -1.101562 5.738281 -1.535156 C 6.128906 -1.96875 6.324219 -2.554688 6.324219 -3.308594 L 6.324219 -7.636719 L 7.578125 -7.636719 L 7.578125 0 L 6.324219 0 L 6.324219 -1.171875 C 6.015625 -0.699219 5.652344 -0.363281 5.261719 -0.140625 C 4.859375 0.0703125 4.398438 0.179688 3.867188 0.179688 C 2.988281 0.179688 2.316406 -0.0820312 1.871094 -0.628906 C 1.410156 -1.160156 1.1875 -1.953125 1.1875 -3.015625 Z M 4.339844 -7.816406 Z M 4.339844 -7.816406 "/>
</symbol>
<symbol overflow="visible" id="glyph1-2">
<path style="stroke:none;" d="M 5.738281 -6.460938 C 5.597656 -6.546875 5.445312 -6.601562 5.277344 -6.644531 C 5.109375 -6.671875 4.925781 -6.699219 4.730469 -6.699219 C 4.019531 -6.699219 3.476562 -6.460938 3.097656 -6.003906 C 2.707031 -5.542969 2.527344 -4.886719 2.527344 -4.019531 L 2.527344 0 L 1.269531 0 L 1.269531 -7.636719 L 2.527344 -7.636719 L 2.527344 -6.449219 C 2.777344 -6.910156 3.125 -7.257812 3.546875 -7.480469 C 3.964844 -7.703125 4.480469 -7.816406 5.09375 -7.816406 C 5.179688 -7.816406 5.277344 -7.800781 5.386719 -7.800781 C 5.484375 -7.789062 5.597656 -7.773438 5.738281 -7.746094 Z M 5.738281 -6.460938 "/>
</symbol>
<symbol overflow="visible" id="glyph1-3">
<path style="stroke:none;" d="M 4.789062 -3.839844 C 3.769531 -3.839844 3.070312 -3.714844 2.679688 -3.488281 C 2.289062 -3.253906 2.09375 -2.863281 2.09375 -2.304688 C 2.09375 -1.855469 2.234375 -1.492188 2.527344 -1.242188 C 2.820312 -0.976562 3.222656 -0.851562 3.726562 -0.851562 C 4.425781 -0.851562 4.984375 -1.089844 5.402344 -1.589844 C 5.820312 -2.078125 6.03125 -2.734375 6.03125 -3.558594 L 6.03125 -3.839844 Z M 7.285156 -4.355469 L 7.285156 0 L 6.03125 0 L 6.03125 -1.160156 C 5.738281 -0.683594 5.375 -0.347656 4.957031 -0.140625 C 4.535156 0.0703125 4.007812 0.179688 3.390625 0.179688 C 2.609375 0.179688 1.980469 -0.0273438 1.519531 -0.460938 C 1.0625 -0.894531 0.835938 -1.480469 0.835938 -2.21875 C 0.835938 -3.070312 1.117188 -3.714844 1.703125 -4.160156 C 2.273438 -4.59375 3.125 -4.816406 4.269531 -4.816406 L 6.03125 -4.816406 L 6.03125 -4.941406 C 6.03125 -5.511719 5.835938 -5.960938 5.457031 -6.28125 C 5.082031 -6.589844 4.550781 -6.753906 3.867188 -6.753906 C 3.417969 -6.753906 3 -6.699219 2.582031 -6.589844 C 2.164062 -6.476562 1.773438 -6.324219 1.394531 -6.128906 L 1.394531 -7.285156 C 1.84375 -7.453125 2.289062 -7.59375 2.722656 -7.675781 C 3.15625 -7.761719 3.574219 -7.816406 3.992188 -7.816406 C 5.09375 -7.816406 5.917969 -7.523438 6.460938 -6.953125 C 7.007812 -6.378906 7.285156 -5.511719 7.285156 -4.355469 Z M 7.285156 -4.355469 "/>
</symbol>
<symbol overflow="visible" id="glyph1-4">
<path style="stroke:none;" d="M 2.554688 -9.796875 L 2.554688 -7.636719 L 5.136719 -7.636719 L 5.136719 -6.65625 L 2.554688 -6.65625 L 2.554688 -2.511719 C 2.554688 -1.882812 2.636719 -1.480469 2.804688 -1.3125 C 2.972656 -1.128906 3.320312 -1.046875 3.851562 -1.046875 L 5.136719 -1.046875 L 5.136719 0 L 3.851562 0 C 2.875 0 2.207031 -0.179688 1.84375 -0.542969 C 1.480469 -0.90625 1.296875 -1.5625 1.296875 -2.511719 L 1.296875 -6.65625 L 0.375 -6.65625 L 0.375 -7.636719 L 1.296875 -7.636719 L 1.296875 -9.796875 Z M 2.554688 -9.796875 "/>
</symbol>
<symbol overflow="visible" id="glyph1-5">
<path style="stroke:none;" d="M 1.3125 -7.636719 L 2.566406 -7.636719 L 2.566406 0 L 1.3125 0 Z M 1.3125 -10.609375 L 2.566406 -10.609375 L 2.566406 -9.015625 L 1.3125 -9.015625 Z M 1.3125 -10.609375 "/>
</symbol>
<symbol overflow="visible" id="glyph1-6">
<path style="stroke:none;" d="M 4.269531 -6.753906 C 3.601562 -6.753906 3.070312 -6.492188 2.679688 -5.960938 C 2.289062 -5.429688 2.09375 -4.71875 2.09375 -3.8125 C 2.09375 -2.890625 2.273438 -2.175781 2.667969 -1.648438 C 3.058594 -1.117188 3.585938 -0.867188 4.269531 -0.867188 C 4.941406 -0.867188 5.472656 -1.117188 5.863281 -1.648438 C 6.253906 -2.175781 6.449219 -2.890625 6.449219 -3.8125 C 6.449219 -4.703125 6.253906 -5.429688 5.863281 -5.960938 C 5.472656 -6.492188 4.941406 -6.753906 4.269531 -6.753906 Z M 4.269531 -7.816406 C 5.359375 -7.816406 6.210938 -7.453125 6.839844 -6.753906 C 7.453125 -6.042969 7.773438 -5.066406 7.773438 -3.8125 C 7.773438 -2.554688 7.453125 -1.578125 6.839844 -0.878906 C 6.210938 -0.167969 5.359375 0.179688 4.269531 0.179688 C 3.167969 0.179688 2.304688 -0.167969 1.6875 -0.878906 C 1.074219 -1.578125 0.769531 -2.554688 0.769531 -3.8125 C 0.769531 -5.066406 1.074219 -6.042969 1.6875 -6.753906 C 2.304688 -7.453125 3.167969 -7.816406 4.269531 -7.816406 Z M 4.269531 -7.816406 "/>
</symbol>
<symbol overflow="visible" id="glyph1-7">
<path style="stroke:none;" d="M 7.664062 -4.605469 L 7.664062 0 L 6.40625 0 L 6.40625 -4.5625 C 6.40625 -5.289062 6.253906 -5.820312 5.972656 -6.183594 C 5.695312 -6.546875 5.277344 -6.726562 4.71875 -6.726562 C 4.035156 -6.726562 3.503906 -6.503906 3.113281 -6.070312 C 2.722656 -5.640625 2.527344 -5.054688 2.527344 -4.3125 L 2.527344 0 L 1.269531 0 L 1.269531 -7.636719 L 2.527344 -7.636719 L 2.527344 -6.449219 C 2.820312 -6.894531 3.167969 -7.246094 3.585938 -7.46875 C 3.992188 -7.691406 4.464844 -7.816406 4.996094 -7.816406 C 5.863281 -7.816406 6.53125 -7.539062 6.980469 -6.992188 C 7.425781 -6.449219 7.664062 -5.652344 7.664062 -4.605469 Z M 7.664062 -4.605469 "/>
</symbol>
<symbol overflow="visible" id="glyph2-0">
<path style="stroke:none;" d="M 4.121094 -8.605469 C 3.460938 -8.605469 2.96875 -8.28125 2.632812 -7.632812 C 2.292969 -6.984375 2.136719 -6.015625 2.136719 -4.71875 C 2.136719 -3.421875 2.292969 -2.449219 2.632812 -1.800781 C 2.96875 -1.152344 3.460938 -0.828125 4.121094 -0.828125 C 4.78125 -0.828125 5.273438 -1.152344 5.613281 -1.800781 C 5.9375 -2.449219 6.105469 -3.421875 6.105469 -4.71875 C 6.105469 -6.015625 5.9375 -6.984375 5.613281 -7.632812 C 5.273438 -8.28125 4.78125 -8.605469 4.121094 -8.605469 Z M 4.121094 -9.617188 C 5.171875 -9.617188 5.976562 -9.191406 6.546875 -8.359375 C 7.101562 -7.519531 7.386719 -6.300781 7.386719 -4.71875 C 7.386719 -3.125 7.101562 -1.90625 6.546875 -1.074219 C 5.976562 -0.246094 5.171875 0.167969 4.109375 0.167969 C 3.046875 0.167969 2.242188 -0.246094 1.683594 -1.074219 C 1.128906 -1.90625 0.855469 -3.125 0.855469 -4.71875 C 0.855469 -6.300781 1.128906 -7.519531 1.683594 -8.359375 C 2.242188 -9.191406 3.058594 -9.617188 4.121094 -9.617188 Z M 4.121094 -9.617188 "/>
</symbol>
<symbol overflow="visible" id="glyph2-1">
<path style="stroke:none;" d="M 1.386719 -1.605469 L 2.722656 -1.605469 L 2.722656 0 L 1.386719 0 Z M 1.386719 -1.605469 "/>
</symbol>
<symbol overflow="visible" id="glyph2-2">
<path style="stroke:none;" d="M 1.605469 -1.074219 L 3.695312 -1.074219 L 3.695312 -8.28125 L 1.425781 -7.828125 L 1.425781 -8.996094 L 3.679688 -9.449219 L 4.964844 -9.449219 L 4.964844 -1.074219 L 7.050781 -1.074219 L 7.050781 0 L 1.605469 0 Z M 1.605469 -1.074219 "/>
</symbol>
<symbol overflow="visible" id="glyph2-3">
<path style="stroke:none;" d="M 5.261719 -5.09375 C 5.871094 -4.964844 6.351562 -4.691406 6.6875 -4.277344 C 7.023438 -3.863281 7.207031 -3.34375 7.207031 -2.746094 C 7.207031 -1.816406 6.882812 -1.089844 6.246094 -0.582031 C 5.597656 -0.078125 4.691406 0.167969 3.511719 0.167969 C 3.109375 0.167969 2.695312 0.128906 2.28125 0.0507812 C 1.867188 -0.0117188 1.425781 -0.128906 0.984375 -0.285156 L 0.984375 -1.515625 C 1.335938 -1.308594 1.722656 -1.152344 2.152344 -1.050781 C 2.566406 -0.945312 3.007812 -0.894531 3.472656 -0.894531 C 4.277344 -0.894531 4.886719 -1.050781 5.300781 -1.359375 C 5.714844 -1.671875 5.9375 -2.136719 5.9375 -2.746094 C 5.9375 -3.292969 5.742188 -3.734375 5.351562 -4.042969 C 4.964844 -4.355469 4.417969 -4.523438 3.71875 -4.523438 L 2.617188 -4.523438 L 2.617188 -5.574219 L 3.773438 -5.574219 C 4.394531 -5.574219 4.875 -5.691406 5.210938 -5.949219 C 5.546875 -6.195312 5.714844 -6.558594 5.714844 -7.039062 C 5.714844 -7.519531 5.535156 -7.894531 5.199219 -8.152344 C 4.847656 -8.410156 4.355469 -8.542969 3.71875 -8.542969 C 3.371094 -8.542969 2.992188 -8.503906 2.59375 -8.425781 C 2.191406 -8.347656 1.75 -8.230469 1.269531 -8.074219 L 1.269531 -9.214844 C 1.75 -9.34375 2.203125 -9.449219 2.632812 -9.511719 C 3.046875 -9.578125 3.449219 -9.617188 3.835938 -9.617188 C 4.796875 -9.617188 5.558594 -9.398438 6.128906 -8.957031 C 6.699219 -8.515625 6.984375 -7.917969 6.984375 -7.167969 C 6.984375 -6.648438 6.832031 -6.207031 6.53125 -5.84375 C 6.234375 -5.484375 5.808594 -5.222656 5.261719 -5.09375 Z M 5.261719 -5.09375 "/>
</symbol>
<symbol overflow="visible" id="glyph2-4">
<path style="stroke:none;" d="M 2.488281 -1.074219 L 6.949219 -1.074219 L 6.949219 0 L 0.945312 0 L 0.945312 -1.074219 C 1.425781 -1.566406 2.085938 -2.242188 2.929688 -3.097656 C 3.757812 -3.941406 4.289062 -4.484375 4.511719 -4.730469 C 4.925781 -5.183594 5.210938 -5.574219 5.367188 -5.898438 C 5.523438 -6.207031 5.613281 -6.53125 5.613281 -6.84375 C 5.613281 -7.335938 5.429688 -7.75 5.082031 -8.0625 C 4.730469 -8.371094 4.277344 -8.542969 3.707031 -8.542969 C 3.304688 -8.542969 2.878906 -8.464844 2.4375 -8.335938 C 1.996094 -8.191406 1.515625 -7.984375 1.011719 -7.699219 L 1.011719 -8.996094 C 1.53125 -9.203125 2.007812 -9.359375 2.449219 -9.460938 C 2.890625 -9.566406 3.304688 -9.617188 3.679688 -9.617188 C 4.652344 -9.617188 5.429688 -9.371094 6.015625 -8.878906 C 6.597656 -8.386719 6.894531 -7.738281 6.894531 -6.921875 C 6.894531 -6.53125 6.816406 -6.15625 6.675781 -5.820312 C 6.53125 -5.46875 6.273438 -5.054688 5.882812 -4.589844 C 5.78125 -4.457031 5.445312 -4.109375 4.875 -3.527344 C 4.304688 -2.941406 3.511719 -2.125 2.488281 -1.074219 Z M 2.488281 -1.074219 "/>
</symbol>
<symbol overflow="visible" id="glyph2-5">
<path style="stroke:none;" d="M 1.398438 -9.449219 L 6.414062 -9.449219 L 6.414062 -8.371094 L 2.566406 -8.371094 L 2.566406 -6.054688 C 2.746094 -6.117188 2.941406 -6.167969 3.125 -6.195312 C 3.304688 -6.222656 3.5 -6.246094 3.679688 -6.246094 C 4.730469 -6.246094 5.558594 -5.949219 6.183594 -5.378906 C 6.804688 -4.796875 7.117188 -4.019531 7.117188 -3.03125 C 7.117188 -2.007812 6.792969 -1.21875 6.15625 -0.660156 C 5.523438 -0.105469 4.628906 0.167969 3.488281 0.167969 C 3.085938 0.167969 2.683594 0.128906 2.269531 0.078125 C 1.851562 0.0117188 1.4375 -0.078125 0.996094 -0.21875 L 0.996094 -1.503906 C 1.375 -1.296875 1.761719 -1.140625 2.175781 -1.035156 C 2.578125 -0.933594 3.007812 -0.894531 3.460938 -0.894531 C 4.1875 -0.894531 4.769531 -1.074219 5.199219 -1.464844 C 5.613281 -1.851562 5.832031 -2.371094 5.832031 -3.03125 C 5.832031 -3.679688 5.613281 -4.199219 5.199219 -4.589844 C 4.769531 -4.976562 4.1875 -5.171875 3.460938 -5.171875 C 3.125 -5.171875 2.773438 -5.132812 2.4375 -5.054688 C 2.101562 -4.976562 1.75 -4.859375 1.398438 -4.703125 Z M 1.398438 -9.449219 "/>
</symbol>
<symbol overflow="visible" id="glyph2-6">
<path style="stroke:none;" d="M 4.121094 -4.484375 C 3.511719 -4.484375 3.03125 -4.316406 2.683594 -3.992188 C 2.332031 -3.667969 2.164062 -3.226562 2.164062 -2.65625 C 2.164062 -2.085938 2.332031 -1.632812 2.683594 -1.308594 C 3.03125 -0.984375 3.511719 -0.828125 4.121094 -0.828125 C 4.71875 -0.828125 5.199219 -0.984375 5.546875 -1.320312 C 5.898438 -1.644531 6.078125 -2.085938 6.078125 -2.65625 C 6.078125 -3.226562 5.898438 -3.667969 5.558594 -3.992188 C 5.210938 -4.316406 4.730469 -4.484375 4.121094 -4.484375 Z M 2.839844 -5.027344 C 2.292969 -5.160156 1.867188 -5.417969 1.554688 -5.792969 C 1.246094 -6.167969 1.101562 -6.625 1.101562 -7.167969 C 1.101562 -7.917969 1.359375 -8.515625 1.90625 -8.957031 C 2.4375 -9.398438 3.175781 -9.617188 4.121094 -9.617188 C 5.054688 -9.617188 5.792969 -9.398438 6.339844 -8.957031 C 6.871094 -8.515625 7.140625 -7.917969 7.140625 -7.167969 C 7.140625 -6.625 6.984375 -6.167969 6.675781 -5.792969 C 6.363281 -5.417969 5.949219 -5.160156 5.40625 -5.027344 C 6.015625 -4.886719 6.492188 -4.601562 6.84375 -4.1875 C 7.179688 -3.773438 7.363281 -3.253906 7.363281 -2.65625 C 7.363281 -1.738281 7.078125 -1.035156 6.519531 -0.558594 C 5.949219 -0.0664062 5.144531 0.167969 4.109375 0.167969 C 3.070312 0.167969 2.269531 -0.0664062 1.710938 -0.558594 C 1.152344 -1.035156 0.882812 -1.738281 0.882812 -2.65625 C 0.882812 -3.253906 1.050781 -3.773438 1.398438 -4.1875 C 1.738281 -4.601562 2.214844 -4.886719 2.839844 -5.027344 Z M 2.371094 -7.050781 C 2.371094 -6.558594 2.515625 -6.167969 2.824219 -5.898438 C 3.136719 -5.625 3.5625 -5.496094 4.121094 -5.496094 C 4.667969 -5.496094 5.09375 -5.625 5.40625 -5.898438 C 5.714844 -6.167969 5.871094 -6.558594 5.871094 -7.050781 C 5.871094 -7.542969 5.714844 -7.917969 5.40625 -8.191406 C 5.09375 -8.464844 4.667969 -8.605469 4.121094 -8.605469 C 3.5625 -8.605469 3.136719 -8.464844 2.824219 -8.191406 C 2.515625 -7.917969 2.371094 -7.542969 2.371094 -7.050781 Z M 2.371094 -7.050781 "/>
</symbol>
<symbol overflow="visible" id="glyph3-0">
<path style="stroke:none;" d="M -10.175781 -1.367188 L -10.175781 -7.214844 L -9.015625 -7.214844 L -9.015625 -2.75 L -6.015625 -2.75 L -6.015625 -6.785156 L -4.859375 -6.785156 L -4.859375 -2.75 L 0 -2.75 L 0 -1.367188 Z M -10.175781 -1.367188 "/>
</symbol>
<symbol overflow="visible" id="glyph3-1">
<path style="stroke:none;" d="M -6.460938 -5.738281 C -6.546875 -5.597656 -6.601562 -5.445312 -6.644531 -5.277344 C -6.671875 -5.109375 -6.699219 -4.925781 -6.699219 -4.730469 C -6.699219 -4.019531 -6.460938 -3.476562 -6.003906 -3.097656 C -5.542969 -2.707031 -4.886719 -2.527344 -4.019531 -2.527344 L 0 -2.527344 L 0 -1.269531 L -7.636719 -1.269531 L -7.636719 -2.527344 L -6.449219 -2.527344 C -6.910156 -2.777344 -7.257812 -3.125 -7.480469 -3.546875 C -7.703125 -3.964844 -7.816406 -4.480469 -7.816406 -5.09375 C -7.816406 -5.179688 -7.800781 -5.277344 -7.800781 -5.386719 C -7.789062 -5.484375 -7.773438 -5.597656 -7.746094 -5.738281 Z M -6.460938 -5.738281 "/>
</symbol>
<symbol overflow="visible" id="glyph3-2">
<path style="stroke:none;" d="M -4.132812 -7.84375 L -3.515625 -7.84375 L -3.515625 -2.078125 C -2.652344 -2.136719 -1.980469 -2.386719 -1.535156 -2.863281 C -1.089844 -3.320312 -0.867188 -3.964844 -0.867188 -4.800781 C -0.867188 -5.277344 -0.921875 -5.75 -1.03125 -6.199219 C -1.144531 -6.644531 -1.324219 -7.105469 -1.578125 -7.550781 L -0.390625 -7.550781 C -0.195312 -7.105469 -0.0429688 -6.644531 0.0429688 -6.167969 C 0.125 -5.695312 0.179688 -5.207031 0.179688 -4.730469 C 0.179688 -3.503906 -0.167969 -2.539062 -0.867188 -1.828125 C -1.5625 -1.117188 -2.527344 -0.769531 -3.742188 -0.769531 C -4.984375 -0.769531 -5.972656 -1.101562 -6.714844 -1.773438 C -7.441406 -2.441406 -7.816406 -3.363281 -7.816406 -4.507812 C -7.816406 -5.542969 -7.480469 -6.351562 -6.824219 -6.953125 C -6.15625 -7.539062 -5.261719 -7.84375 -4.132812 -7.84375 Z M -4.496094 -6.589844 C -5.179688 -6.574219 -5.722656 -6.378906 -6.140625 -6.015625 C -6.546875 -5.640625 -6.753906 -5.136719 -6.753906 -4.523438 C -6.753906 -3.824219 -6.546875 -3.265625 -6.15625 -2.847656 C -5.765625 -2.429688 -5.207031 -2.175781 -4.496094 -2.121094 Z M -4.496094 -6.589844 "/>
</symbol>
<symbol overflow="visible" id="glyph3-3">
<path style="stroke:none;" d="M -3.8125 -2.066406 C -2.890625 -2.066406 -2.164062 -2.246094 -1.632812 -2.625 C -1.101562 -3 -0.851562 -3.515625 -0.851562 -4.1875 C -0.851562 -4.859375 -1.101562 -5.375 -1.632812 -5.765625 C -2.164062 -6.140625 -2.890625 -6.335938 -3.8125 -6.335938 C -4.730469 -6.335938 -5.445312 -6.140625 -5.972656 -5.765625 C -6.503906 -5.375 -6.769531 -4.859375 -6.769531 -4.1875 C -6.769531 -3.515625 -6.503906 -3 -5.972656 -2.625 C -5.445312 -2.246094 -4.730469 -2.066406 -3.8125 -2.066406 Z M -1.144531 -6.335938 C -0.683594 -6.070312 -0.347656 -5.738281 -0.140625 -5.332031 C 0.0703125 -4.925781 0.179688 -4.453125 0.179688 -3.894531 C 0.179688 -2.972656 -0.179688 -2.21875 -0.90625 -1.632812 C -1.632812 -1.046875 -2.609375 -0.769531 -3.8125 -0.769531 C -5.011719 -0.769531 -5.972656 -1.046875 -6.714844 -1.632812 C -7.441406 -2.21875 -7.816406 -2.972656 -7.816406 -3.894531 C -7.816406 -4.453125 -7.703125 -4.925781 -7.480469 -5.332031 C -7.257812 -5.738281 -6.921875 -6.070312 -6.476562 -6.335938 L -7.636719 -6.335938 L -7.636719 -7.59375 L 2.890625 -7.59375 L 2.890625 -6.335938 Z M -1.144531 -6.335938 "/>
</symbol>
<symbol overflow="visible" id="glyph3-4">
<path style="stroke:none;" d="M -3.015625 -1.1875 L -7.636719 -1.1875 L -7.636719 -2.441406 L -3.058594 -2.441406 C -2.332031 -2.441406 -1.800781 -2.582031 -1.4375 -2.863281 C -1.074219 -3.140625 -0.894531 -3.558594 -0.894531 -4.132812 C -0.894531 -4.800781 -1.101562 -5.347656 -1.535156 -5.738281 C -1.96875 -6.128906 -2.554688 -6.324219 -3.308594 -6.324219 L -7.636719 -6.324219 L -7.636719 -7.578125 L 0 -7.578125 L 0 -6.324219 L -1.171875 -6.324219 C -0.699219 -6.015625 -0.363281 -5.652344 -0.140625 -5.261719 C 0.0703125 -4.859375 0.179688 -4.398438 0.179688 -3.867188 C 0.179688 -2.988281 -0.0820312 -2.316406 -0.628906 -1.871094 C -1.160156 -1.410156 -1.953125 -1.1875 -3.015625 -1.1875 Z M -7.816406 -4.339844 Z M -7.816406 -4.339844 "/>
</symbol>
<symbol overflow="visible" id="glyph3-5">
<path style="stroke:none;" d="M -4.605469 -7.664062 L 0 -7.664062 L 0 -6.40625 L -4.5625 -6.40625 C -5.289062 -6.40625 -5.820312 -6.253906 -6.183594 -5.972656 C -6.546875 -5.695312 -6.726562 -5.277344 -6.726562 -4.71875 C -6.726562 -4.035156 -6.503906 -3.503906 -6.070312 -3.113281 C -5.640625 -2.722656 -5.054688 -2.527344 -4.3125 -2.527344 L 0 -2.527344 L 0 -1.269531 L -7.636719 -1.269531 L -7.636719 -2.527344 L -6.449219 -2.527344 C -6.894531 -2.820312 -7.246094 -3.167969 -7.46875 -3.585938 C -7.691406 -3.992188 -7.816406 -4.464844 -7.816406 -4.996094 C -7.816406 -5.863281 -7.539062 -6.53125 -6.992188 -6.980469 C -6.449219 -7.425781 -5.652344 -7.664062 -4.605469 -7.664062 Z M -4.605469 -7.664062 "/>
</symbol>
<symbol overflow="visible" id="glyph3-6">
<path style="stroke:none;" d="M -7.34375 -6.8125 L -6.167969 -6.8125 C -6.363281 -6.449219 -6.503906 -6.101562 -6.601562 -5.738281 C -6.699219 -5.375 -6.753906 -5.023438 -6.753906 -4.660156 C -6.753906 -3.851562 -6.492188 -3.210938 -5.972656 -2.765625 C -5.457031 -2.316406 -4.730469 -2.09375 -3.8125 -2.09375 C -2.875 -2.09375 -2.148438 -2.316406 -1.632812 -2.765625 C -1.117188 -3.210938 -0.867188 -3.851562 -0.867188 -4.660156 C -0.867188 -5.023438 -0.90625 -5.375 -1.003906 -5.738281 C -1.101562 -6.101562 -1.257812 -6.449219 -1.453125 -6.8125 L -0.292969 -6.8125 C -0.125 -6.449219 0 -6.085938 0.0703125 -5.722656 C 0.140625 -5.347656 0.179688 -4.941406 0.179688 -4.523438 C 0.179688 -3.378906 -0.167969 -2.457031 -0.894531 -1.785156 C -1.605469 -1.101562 -2.582031 -0.769531 -3.8125 -0.769531 C -5.054688 -0.769531 -6.03125 -1.101562 -6.742188 -1.785156 C -7.453125 -2.46875 -7.816406 -3.40625 -7.816406 -4.605469 C -7.816406 -4.996094 -7.773438 -5.375 -7.691406 -5.738281 C -7.605469 -6.101562 -7.496094 -6.460938 -7.34375 -6.8125 Z M -7.34375 -6.8125 "/>
</symbol>
<symbol overflow="visible" id="glyph3-7">
<path style="stroke:none;" d="M 0.699219 -4.496094 C 1.589844 -4.132812 2.191406 -3.78125 2.46875 -3.449219 C 2.75 -3.113281 2.890625 -2.667969 2.890625 -2.109375 L 2.890625 -1.101562 L 1.84375 -1.101562 L 1.84375 -1.84375 C 1.84375 -2.175781 1.757812 -2.441406 1.589844 -2.636719 C 1.421875 -2.832031 1.046875 -3.042969 0.433594 -3.28125 L -0.125 -3.503906 L -7.636719 -0.417969 L -7.636719 -1.746094 L -1.660156 -4.132812 L -7.636719 -6.519531 L -7.636719 -7.84375 Z M 0.699219 -4.496094 "/>
</symbol>
</g>
<clipPath id="clip1">
  <path d="M 0.660156 0 L 561.636719 0 L 561.636719 288.277344 L 0.660156 288.277344 Z M 0.660156 0 "/>
</clipPath>
<clipPath id="clip2">
  <path d="M 112 3.589844 L 114 3.589844 L 114 215.734375 L 112 215.734375 Z M 112 3.589844 "/>
</clipPath>
<clipPath id="clip3">
  <path d="M 84 241 L 90 241 L 90 245 L 84 245 Z M 84 241 "/>
</clipPath>
<clipPath id="clip4">
  <path d="M 77.304688 259.210938 L 108.902344 240.96875 L 97.914062 221.929688 L 66.316406 240.175781 Z M 77.304688 259.210938 "/>
</clipPath>
<clipPath id="clip5">
  <path d="M 190 3.589844 L 192 3.589844 L 192 215.734375 L 190 215.734375 Z M 190 3.589844 "/>
</clipPath>
<clipPath id="clip6">
  <path d="M 157 243 L 163 243 L 163 248 L 157 248 Z M 157 243 "/>
</clipPath>
<clipPath id="clip7">
  <path d="M 150.492188 262.128906 L 182.089844 243.886719 L 171.097656 224.851562 L 139.5 243.09375 Z M 150.492188 262.128906 "/>
</clipPath>
<clipPath id="clip8">
  <path d="M 268 3.589844 L 270 3.589844 L 270 215.734375 L 268 215.734375 Z M 268 3.589844 "/>
</clipPath>
<clipPath id="clip9">
  <path d="M 235 243 L 241 243 L 241 248 L 235 248 Z M 235 243 "/>
</clipPath>
<clipPath id="clip10">
  <path d="M 228.75 262.121094 L 260.347656 243.878906 L 249.355469 224.839844 L 217.757812 243.082031 Z M 228.75 262.121094 "/>
</clipPath>
<clipPath id="clip11">
  <path d="M 347 3.589844 L 348 3.589844 L 348 215.734375 L 347 215.734375 Z M 347 3.589844 "/>
</clipPath>
<clipPath id="clip12">
  <path d="M 313 243 L 319 243 L 319 248 L 313 248 Z M 313 243 "/>
</clipPath>
<clipPath id="clip13">
  <path d="M 306.988281 262.121094 L 338.585938 243.878906 L 327.597656 224.839844 L 296 243.082031 Z M 306.988281 262.121094 "/>
</clipPath>
<clipPath id="clip14">
  <path d="M 425 3.589844 L 427 3.589844 L 427 215.734375 L 425 215.734375 Z M 425 3.589844 "/>
</clipPath>
<clipPath id="clip15">
  <path d="M 392 243 L 398 243 L 398 248 L 392 248 Z M 392 243 "/>
</clipPath>
<clipPath id="clip16">
  <path d="M 385.230469 262.121094 L 416.828125 243.878906 L 405.835938 224.839844 L 374.238281 243.082031 Z M 385.230469 262.121094 "/>
</clipPath>
<clipPath id="clip17">
  <path d="M 503 3.589844 L 505 3.589844 L 505 215.734375 L 503 215.734375 Z M 503 3.589844 "/>
</clipPath>
<clipPath id="clip18">
  <path d="M 470 243 L 476 243 L 476 248 L 470 248 Z M 470 243 "/>
</clipPath>
<clipPath id="clip19">
  <path d="M 463.472656 262.121094 L 495.070312 243.878906 L 484.078125 224.839844 L 452.480469 243.082031 Z M 463.472656 262.121094 "/>
</clipPath>
<clipPath id="clip20">
  <path d="M 58.871094 215 L 558.046875 215 L 558.046875 215.734375 L 58.871094 215.734375 Z M 58.871094 215 "/>
</clipPath>
<clipPath id="clip21">
  <path d="M 58.871094 171 L 558.046875 171 L 558.046875 173 L 58.871094 173 Z M 58.871094 171 "/>
</clipPath>
<clipPath id="clip22">
  <path d="M 58.871094 128 L 558.046875 128 L 558.046875 130 L 58.871094 130 Z M 58.871094 128 "/>
</clipPath>
<clipPath id="clip23">
  <path d="M 58.871094 85 L 558.046875 85 L 558.046875 86 L 58.871094 86 Z M 58.871094 85 "/>
</clipPath>
<clipPath id="clip24">
  <path d="M 58.871094 41 L 558.046875 41 L 558.046875 43 L 58.871094 43 Z M 58.871094 41 "/>
</clipPath>
<clipPath id="clip25">
  <path d="M 81 207 L 145 207 L 145 215.734375 L 81 215.734375 Z M 81 207 "/>
</clipPath>
<clipPath id="clip26">
  <path d="M 81 206 L 145 206 L 145 215.734375 L 81 215.734375 Z M 81 206 "/>
</clipPath>
<clipPath id="clip27">
  <path d="M 159 35 L 223 35 L 223 215.734375 L 159 215.734375 Z M 159 35 "/>
</clipPath>
<clipPath id="clip28">
  <path d="M 238 160 L 301 160 L 301 215.734375 L 238 215.734375 Z M 238 160 "/>
</clipPath>
<clipPath id="clip29">
  <path d="M 237 159 L 302 159 L 302 215.734375 L 237 215.734375 Z M 237 159 "/>
</clipPath>
<clipPath id="clip30">
  <path d="M 316 196 L 379 196 L 379 215.734375 L 316 215.734375 Z M 316 196 "/>
</clipPath>
<clipPath id="clip31">
  <path d="M 315 196 L 380 196 L 380 215.734375 L 315 215.734375 Z M 315 196 "/>
</clipPath>
<clipPath id="clip32">
  <path d="M 394 173 L 458 173 L 458 215.734375 L 394 215.734375 Z M 394 173 "/>
</clipPath>
<clipPath id="clip33">
  <path d="M 394 172 L 458 172 L 458 215.734375 L 394 215.734375 Z M 394 172 "/>
</clipPath>
<clipPath id="clip34">
  <path d="M 472 178 L 536 178 L 536 215.734375 L 472 215.734375 Z M 472 178 "/>
</clipPath>
<clipPath id="clip35">
  <path d="M 472 177 L 536 177 L 536 215.734375 L 472 215.734375 Z M 472 177 "/>
</clipPath>
</defs>
<g id="surface1">
<g clip-path="url(#clip1)" clip-rule="nonzero">
<path style=" stroke:none;fill-rule:nonzero;fill:rgb(100%,100%,100%);fill-opacity:1;" d="M 0.660156 288.277344 L 561.636719 288.277344 L 561.636719 0 L 0.660156 0 Z M 0.660156 288.277344 "/>
</g>
<path style=" stroke:none;fill-rule:nonzero;fill:rgb(100%,100%,100%);fill-opacity:1;" d="M 58.871094 215.734375 L 558.046875 215.734375 L 558.046875 3.589844 L 58.871094 3.589844 Z M 58.871094 215.734375 "/>
<g clip-path="url(#clip2)" clip-rule="nonzero">
<path style="fill:none;stroke-width:0.7;stroke-linecap:round;stroke-linejoin:round;stroke:rgb(89.802551%,89.802551%,89.802551%);stroke-opacity:1;stroke-miterlimit:10;" d="M 112.532789 72.759987 L 112.532789 285.537179 " transform="matrix(0.997027,0,0,-0.997027,0.661185,288.278021)"/>
</g>
<g style="fill:rgb(14.99939%,14.99939%,14.99939%);fill-opacity:1;">
  <use xlink:href="#glyph0-0" x="72.776623" y="254.897532"/>
  <use xlink:href="#glyph0-1" x="79.915631" y="250.775824"/>
</g>
<g style="fill:rgb(14.99939%,14.99939%,14.99939%);fill-opacity:1;">
  <use xlink:href="#glyph0-2" x="91.378751" y="244.157588"/>
  <use xlink:href="#glyph0-0" x="98.517759" y="240.03588"/>
  <use xlink:href="#glyph0-1" x="105.656767" y="235.914172"/>
</g>
<g clip-path="url(#clip3)" clip-rule="nonzero">
<g clip-path="url(#clip4)" clip-rule="nonzero">
<path style=" stroke:none;fill-rule:nonzero;fill:rgb(14.99939%,14.99939%,14.99939%);fill-opacity:1;" d="M 84.3125 243.613281 L 88.828125 241.007812 L 89.28125 241.792969 L 84.765625 244.398438 Z M 84.3125 243.613281 "/>
</g>
</g>
<g clip-path="url(#clip5)" clip-rule="nonzero">
<path style="fill:none;stroke-width:0.7;stroke-linecap:round;stroke-linejoin:round;stroke:rgb(89.802551%,89.802551%,89.802551%);stroke-opacity:1;stroke-miterlimit:10;" d="M 191.004394 72.759987 L 191.004394 285.537179 " transform="matrix(0.997027,0,0,-0.997027,0.661185,288.278021)"/>
</g>
<g style="fill:rgb(14.99939%,14.99939%,14.99939%);fill-opacity:1;">
  <use xlink:href="#glyph0-2" x="138.821036" y="261.939032"/>
  <use xlink:href="#glyph0-0" x="145.960044" y="257.817324"/>
  <use xlink:href="#glyph0-1" x="153.099052" y="253.695616"/>
</g>
<g style="fill:rgb(14.99939%,14.99939%,14.99939%);fill-opacity:1;">
  <use xlink:href="#glyph0-3" x="164.56476" y="247.075887"/>
  <use xlink:href="#glyph0-4" x="171.703768" y="242.954179"/>
  <use xlink:href="#glyph0-0" x="175.486544" y="240.770192"/>
  <use xlink:href="#glyph0-0" x="182.625552" y="236.648484"/>
</g>
<g clip-path="url(#clip6)" clip-rule="nonzero">
<g clip-path="url(#clip7)" clip-rule="nonzero">
<path style=" stroke:none;fill-rule:nonzero;fill:rgb(14.99939%,14.99939%,14.99939%);fill-opacity:1;" d="M 157.5 246.53125 L 162.011719 243.925781 L 162.464844 244.710938 L 157.953125 247.316406 Z M 157.5 246.53125 "/>
</g>
</g>
<g clip-path="url(#clip8)" clip-rule="nonzero">
<path style="fill:none;stroke-width:0.7;stroke-linecap:round;stroke-linejoin:round;stroke:rgb(89.802551%,89.802551%,89.802551%);stroke-opacity:1;stroke-miterlimit:10;" d="M 269.479916 72.759987 L 269.479916 285.537179 " transform="matrix(0.997027,0,0,-0.997027,0.661185,288.278021)"/>
</g>
<g style="fill:rgb(14.99939%,14.99939%,14.99939%);fill-opacity:1;">
  <use xlink:href="#glyph0-3" x="212.002407" y="264.860009"/>
  <use xlink:href="#glyph0-4" x="219.141415" y="260.738301"/>
  <use xlink:href="#glyph0-0" x="222.924191" y="258.554314"/>
  <use xlink:href="#glyph0-0" x="230.063199" y="254.432606"/>
</g>
<g style="fill:rgb(14.99939%,14.99939%,14.99939%);fill-opacity:1;">
  <use xlink:href="#glyph0-3" x="242.821431" y="247.066637"/>
  <use xlink:href="#glyph0-4" x="249.960439" y="242.944929"/>
  <use xlink:href="#glyph0-2" x="253.743215" y="240.760942"/>
  <use xlink:href="#glyph0-0" x="260.882223" y="236.639234"/>
</g>
<g clip-path="url(#clip9)" clip-rule="nonzero">
<g clip-path="url(#clip10)" clip-rule="nonzero">
<path style=" stroke:none;fill-rule:nonzero;fill:rgb(14.99939%,14.99939%,14.99939%);fill-opacity:1;" d="M 235.757812 246.519531 L 240.269531 243.914062 L 240.722656 244.703125 L 236.210938 247.308594 Z M 235.757812 246.519531 "/>
</g>
</g>
<g clip-path="url(#clip11)" clip-rule="nonzero">
<path style="fill:none;stroke-width:0.7;stroke-linecap:round;stroke-linejoin:round;stroke:rgb(89.802551%,89.802551%,89.802551%);stroke-opacity:1;stroke-miterlimit:10;" d="M 347.951521 72.759987 L 347.951521 285.537179 " transform="matrix(0.997027,0,0,-0.997027,0.661185,288.278021)"/>
</g>
<g style="fill:rgb(14.99939%,14.99939%,14.99939%);fill-opacity:1;">
  <use xlink:href="#glyph0-3" x="290.243058" y="264.860009"/>
  <use xlink:href="#glyph0-4" x="297.382066" y="260.738301"/>
  <use xlink:href="#glyph0-2" x="301.164842" y="258.554314"/>
  <use xlink:href="#glyph0-0" x="308.30385" y="254.432606"/>
</g>
<g style="fill:rgb(14.99939%,14.99939%,14.99939%);fill-opacity:1;">
  <use xlink:href="#glyph0-5" x="321.062082" y="247.066637"/>
  <use xlink:href="#glyph0-4" x="328.20109" y="242.944929"/>
  <use xlink:href="#glyph0-0" x="331.983866" y="240.760942"/>
  <use xlink:href="#glyph0-0" x="339.122874" y="236.639234"/>
</g>
<g clip-path="url(#clip12)" clip-rule="nonzero">
<g clip-path="url(#clip13)" clip-rule="nonzero">
<path style=" stroke:none;fill-rule:nonzero;fill:rgb(14.99939%,14.99939%,14.99939%);fill-opacity:1;" d="M 313.996094 246.519531 L 318.507812 243.914062 L 318.964844 244.703125 L 314.449219 247.308594 Z M 313.996094 246.519531 "/>
</g>
</g>
<g clip-path="url(#clip14)" clip-rule="nonzero">
<path style="fill:none;stroke-width:0.7;stroke-linecap:round;stroke-linejoin:round;stroke:rgb(89.802551%,89.802551%,89.802551%);stroke-opacity:1;stroke-miterlimit:10;" d="M 426.427044 72.759987 L 426.427044 285.537179 " transform="matrix(0.997027,0,0,-0.997027,0.661185,288.278021)"/>
</g>
<g style="fill:rgb(14.99939%,14.99939%,14.99939%);fill-opacity:1;">
  <use xlink:href="#glyph0-5" x="368.483708" y="264.860009"/>
  <use xlink:href="#glyph0-4" x="375.622716" y="260.738301"/>
  <use xlink:href="#glyph0-0" x="379.405493" y="258.554314"/>
  <use xlink:href="#glyph0-0" x="386.544501" y="254.432606"/>
</g>
<g style="fill:rgb(14.99939%,14.99939%,14.99939%);fill-opacity:1;">
  <use xlink:href="#glyph0-5" x="399.302733" y="247.066637"/>
  <use xlink:href="#glyph0-4" x="406.441741" y="242.944929"/>
  <use xlink:href="#glyph0-2" x="410.224517" y="240.760942"/>
  <use xlink:href="#glyph0-0" x="417.363525" y="236.639234"/>
</g>
<g clip-path="url(#clip15)" clip-rule="nonzero">
<g clip-path="url(#clip16)" clip-rule="nonzero">
<path style=" stroke:none;fill-rule:nonzero;fill:rgb(14.99939%,14.99939%,14.99939%);fill-opacity:1;" d="M 392.238281 246.519531 L 396.75 243.914062 L 397.203125 244.703125 L 392.691406 247.308594 Z M 392.238281 246.519531 "/>
</g>
</g>
<g clip-path="url(#clip17)" clip-rule="nonzero">
<path style="fill:none;stroke-width:0.7;stroke-linecap:round;stroke-linejoin:round;stroke:rgb(89.802551%,89.802551%,89.802551%);stroke-opacity:1;stroke-miterlimit:10;" d="M 504.902566 72.759987 L 504.902566 285.537179 " transform="matrix(0.997027,0,0,-0.997027,0.661185,288.278021)"/>
</g>
<g style="fill:rgb(14.99939%,14.99939%,14.99939%);fill-opacity:1;">
  <use xlink:href="#glyph0-5" x="446.724359" y="264.860009"/>
  <use xlink:href="#glyph0-4" x="453.863367" y="260.738301"/>
  <use xlink:href="#glyph0-2" x="457.646143" y="258.554314"/>
  <use xlink:href="#glyph0-0" x="464.785151" y="254.432606"/>
</g>
<g style="fill:rgb(14.99939%,14.99939%,14.99939%);fill-opacity:1;">
  <use xlink:href="#glyph0-2" x="477.543383" y="247.066637"/>
  <use xlink:href="#glyph0-4" x="484.682391" y="242.944929"/>
  <use xlink:href="#glyph0-0" x="488.465167" y="240.760942"/>
  <use xlink:href="#glyph0-0" x="495.604175" y="236.639234"/>
</g>
<g clip-path="url(#clip18)" clip-rule="nonzero">
<g clip-path="url(#clip19)" clip-rule="nonzero">
<path style=" stroke:none;fill-rule:nonzero;fill:rgb(14.99939%,14.99939%,14.99939%);fill-opacity:1;" d="M 470.476562 246.519531 L 474.992188 243.914062 L 475.445312 244.703125 L 470.933594 247.308594 Z M 470.476562 246.519531 "/>
</g>
</g>
<g style="fill:rgb(14.99939%,14.99939%,14.99939%);fill-opacity:1;">
  <use xlink:href="#glyph1-0" x="278.151586" y="281.791117"/>
  <use xlink:href="#glyph1-1" x="288.899534" y="281.791117"/>
  <use xlink:href="#glyph1-2" x="297.749142" y="281.791117"/>
  <use xlink:href="#glyph1-3" x="303.486034" y="281.791117"/>
  <use xlink:href="#glyph1-4" x="312.042516" y="281.791117"/>
  <use xlink:href="#glyph1-5" x="317.514199" y="281.791117"/>
  <use xlink:href="#glyph1-6" x="321.394626" y="281.791117"/>
  <use xlink:href="#glyph1-7" x="329.937151" y="281.791117"/>
</g>
<g clip-path="url(#clip20)" clip-rule="nonzero">
<path style="fill:none;stroke-width:0.7;stroke-linecap:round;stroke-linejoin:round;stroke:rgb(89.802551%,89.802551%,89.802551%);stroke-opacity:1;stroke-miterlimit:10;" d="M 58.383503 72.759987 L 559.047934 72.759987 " transform="matrix(0.997027,0,0,-0.997027,0.661185,288.278021)"/>
</g>
<g style="fill:rgb(14.99939%,14.99939%,14.99939%);fill-opacity:1;">
  <use xlink:href="#glyph2-0" x="21.745183" y="220.655461"/>
  <use xlink:href="#glyph2-1" x="29.9886" y="220.655461"/>
  <use xlink:href="#glyph2-0" x="34.110308" y="220.655461"/>
  <use xlink:href="#glyph2-0" x="42.353724" y="220.655461"/>
</g>
<g clip-path="url(#clip21)" clip-rule="nonzero">
<path style="fill:none;stroke-width:0.7;stroke-linecap:round;stroke-linejoin:round;stroke:rgb(89.802551%,89.802551%,89.802551%);stroke-opacity:1;stroke-miterlimit:10;" d="M 58.383503 116.315273 L 559.047934 116.315273 " transform="matrix(0.997027,0,0,-0.997027,0.661185,288.278021)"/>
</g>
<g style="fill:rgb(14.99939%,14.99939%,14.99939%);fill-opacity:1;">
  <use xlink:href="#glyph2-0" x="21.745183" y="177.229737"/>
  <use xlink:href="#glyph2-1" x="29.9886" y="177.229737"/>
  <use xlink:href="#glyph2-2" x="34.110308" y="177.229737"/>
  <use xlink:href="#glyph2-3" x="42.353724" y="177.229737"/>
</g>
<g clip-path="url(#clip22)" clip-rule="nonzero">
<path style="fill:none;stroke-width:0.7;stroke-linecap:round;stroke-linejoin:round;stroke:rgb(89.802551%,89.802551%,89.802551%);stroke-opacity:1;stroke-miterlimit:10;" d="M 58.383503 159.87056 L 559.047934 159.87056 " transform="matrix(0.997027,0,0,-0.997027,0.661185,288.278021)"/>
</g>
<g style="fill:rgb(14.99939%,14.99939%,14.99939%);fill-opacity:1;">
  <use xlink:href="#glyph2-0" x="21.745183" y="133.804013"/>
  <use xlink:href="#glyph2-1" x="29.9886" y="133.804013"/>
  <use xlink:href="#glyph2-4" x="34.110308" y="133.804013"/>
  <use xlink:href="#glyph2-5" x="42.353724" y="133.804013"/>
</g>
<g clip-path="url(#clip23)" clip-rule="nonzero">
<path style="fill:none;stroke-width:0.7;stroke-linecap:round;stroke-linejoin:round;stroke:rgb(89.802551%,89.802551%,89.802551%);stroke-opacity:1;stroke-miterlimit:10;" d="M 58.383503 203.425846 L 559.047934 203.425846 " transform="matrix(0.997027,0,0,-0.997027,0.661185,288.278021)"/>
</g>
<g style="fill:rgb(14.99939%,14.99939%,14.99939%);fill-opacity:1;">
  <use xlink:href="#glyph2-0" x="21.745183" y="90.378289"/>
  <use xlink:href="#glyph2-1" x="29.9886" y="90.378289"/>
  <use xlink:href="#glyph2-3" x="34.110308" y="90.378289"/>
  <use xlink:href="#glyph2-6" x="42.353724" y="90.378289"/>
</g>
<g clip-path="url(#clip24)" clip-rule="nonzero">
<path style="fill:none;stroke-width:0.7;stroke-linecap:round;stroke-linejoin:round;stroke:rgb(89.802551%,89.802551%,89.802551%);stroke-opacity:1;stroke-miterlimit:10;" d="M 58.383503 246.981132 L 559.047934 246.981132 " transform="matrix(0.997027,0,0,-0.997027,0.661185,288.278021)"/>
</g>
<g style="fill:rgb(14.99939%,14.99939%,14.99939%);fill-opacity:1;">
  <use xlink:href="#glyph2-0" x="21.745183" y="46.952566"/>
  <use xlink:href="#glyph2-1" x="29.9886" y="46.952566"/>
  <use xlink:href="#glyph2-5" x="34.110308" y="46.952566"/>
  <use xlink:href="#glyph2-2" x="42.353724" y="46.952566"/>
</g>
<g style="fill:rgb(14.99939%,14.99939%,14.99939%);fill-opacity:1;">
  <use xlink:href="#glyph3-0" x="14.859468" y="145.74866"/>
</g>
<g style="fill:rgb(14.99939%,14.99939%,14.99939%);fill-opacity:1;">
  <use xlink:href="#glyph3-1" x="14.859468" y="138.735201"/>
</g>
<g style="fill:rgb(14.99939%,14.99939%,14.99939%);fill-opacity:1;">
  <use xlink:href="#glyph3-2" x="14.859468" y="133.294302"/>
  <use xlink:href="#glyph3-3" x="14.859468" y="124.709902"/>
  <use xlink:href="#glyph3-4" x="14.859468" y="115.846335"/>
  <use xlink:href="#glyph3-2" x="14.859468" y="106.996727"/>
  <use xlink:href="#glyph3-5" x="14.859468" y="98.412327"/>
  <use xlink:href="#glyph3-6" x="14.859468" y="89.562719"/>
  <use xlink:href="#glyph3-7" x="14.859468" y="81.885613"/>
</g>
<path style="fill:none;stroke-width:1;stroke-linecap:square;stroke-linejoin:miter;stroke:rgb(79.998779%,79.998779%,79.998779%);stroke-opacity:1;stroke-miterlimit:10;" d="M 58.383503 72.759987 L 58.383503 285.537179 " transform="matrix(0.997027,0,0,-0.997027,0.661185,288.278021)"/>
<path style="fill:none;stroke-width:1;stroke-linecap:square;stroke-linejoin:miter;stroke:rgb(79.998779%,79.998779%,79.998779%);stroke-opacity:1;stroke-miterlimit:10;" d="M 58.383503 72.759987 L 559.047934 72.759987 " transform="matrix(0.997027,0,0,-0.997027,0.661185,288.278021)"/>
<g clip-path="url(#clip25)" clip-rule="nonzero">
<path style=" stroke:none;fill-rule:nonzero;fill:rgb(86.86676%,91.5802%,95.172119%);fill-opacity:1;" d="M 81.5625 215.734375 L 144.152344 215.734375 L 144.152344 207.046875 L 81.5625 207.046875 Z M 81.5625 215.734375 "/>
</g>
<g clip-path="url(#clip26)" clip-rule="nonzero">
<path style="fill:none;stroke-width:0.8;stroke-linecap:butt;stroke-linejoin:miter;stroke:rgb(100%,100%,100%);stroke-opacity:1;stroke-miterlimit:10;" d="M 81.14258 72.759987 L 143.91908 72.759987 L 143.91908 81.473395 L 81.14258 81.473395 Z M 81.14258 72.759987 " transform="matrix(0.997027,0,0,-0.997027,0.661185,288.278021)"/>
</g>
<g clip-path="url(#clip27)" clip-rule="nonzero">
<path style="fill-rule:nonzero;fill:rgb(54.116821%,70.587158%,83.135986%);fill-opacity:1;stroke-width:0.8;stroke-linecap:butt;stroke-linejoin:miter;stroke:rgb(100%,100%,100%);stroke-opacity:1;stroke-miterlimit:10;" d="M 159.614185 72.759987 L 222.394603 72.759987 L 222.394603 253.081302 L 159.614185 253.081302 Z M 159.614185 72.759987 " transform="matrix(0.997027,0,0,-0.997027,0.661185,288.278021)"/>
</g>
<g clip-path="url(#clip28)" clip-rule="nonzero">
<path style=" stroke:none;fill-rule:nonzero;fill:rgb(77.890015%,85.826111%,91.873169%);fill-opacity:1;" d="M 238.042969 215.734375 L 300.636719 215.734375 L 300.636719 160.148438 L 238.042969 160.148438 Z M 238.042969 215.734375 "/>
</g>
<g clip-path="url(#clip29)" clip-rule="nonzero">
<path style="fill:none;stroke-width:0.8;stroke-linecap:butt;stroke-linejoin:miter;stroke:rgb(100%,100%,100%);stroke-opacity:1;stroke-miterlimit:10;" d="M 238.089707 72.759987 L 300.870125 72.759987 L 300.870125 128.511694 L 238.089707 128.511694 Z M 238.089707 72.759987 " transform="matrix(0.997027,0,0,-0.997027,0.661185,288.278021)"/>
</g>
<g clip-path="url(#clip30)" clip-rule="nonzero">
<path style=" stroke:none;fill-rule:nonzero;fill:rgb(84.870911%,90.301514%,94.439697%);fill-opacity:1;" d="M 316.285156 215.734375 L 378.875 215.734375 L 378.875 196.625 L 316.285156 196.625 Z M 316.285156 215.734375 "/>
</g>
<g clip-path="url(#clip31)" clip-rule="nonzero">
<path style="fill:none;stroke-width:0.8;stroke-linecap:butt;stroke-linejoin:miter;stroke:rgb(100%,100%,100%);stroke-opacity:1;stroke-miterlimit:10;" d="M 316.56523 72.759987 L 379.34173 72.759987 L 379.34173 91.92635 L 316.56523 91.92635 Z M 316.56523 72.759987 " transform="matrix(0.997027,0,0,-0.997027,0.661185,288.278021)"/>
</g>
<g clip-path="url(#clip32)" clip-rule="nonzero">
<path style=" stroke:none;fill-rule:nonzero;fill:rgb(80.383301%,87.425232%,92.790222%);fill-opacity:1;" d="M 394.523438 215.734375 L 457.117188 215.734375 L 457.117188 173.175781 L 394.523438 173.175781 Z M 394.523438 215.734375 "/>
</g>
<g clip-path="url(#clip33)" clip-rule="nonzero">
<path style="fill:none;stroke-width:0.8;stroke-linecap:butt;stroke-linejoin:miter;stroke:rgb(100%,100%,100%);stroke-opacity:1;stroke-miterlimit:10;" d="M 395.036835 72.759987 L 457.817253 72.759987 L 457.817253 115.4455 L 395.036835 115.4455 Z M 395.036835 72.759987 " transform="matrix(0.997027,0,0,-0.997027,0.661185,288.278021)"/>
</g>
<g clip-path="url(#clip34)" clip-rule="nonzero">
<path style=" stroke:none;fill-rule:nonzero;fill:rgb(81.3797%,88.064575%,93.156433%);fill-opacity:1;" d="M 472.765625 215.734375 L 535.359375 215.734375 L 535.359375 178.386719 L 472.765625 178.386719 Z M 472.765625 215.734375 "/>
</g>
<g clip-path="url(#clip35)" clip-rule="nonzero">
<path style="fill:none;stroke-width:0.8;stroke-linecap:butt;stroke-linejoin:miter;stroke:rgb(100%,100%,100%);stroke-opacity:1;stroke-miterlimit:10;" d="M 473.512357 72.759987 L 536.292775 72.759987 L 536.292775 110.219022 L 473.512357 110.219022 Z M 473.512357 72.759987 " transform="matrix(0.997027,0,0,-0.997027,0.661185,288.278021)"/>
</g>
</g>
</svg>
